# xmcd CD database file
#
# Track frame offsets:
#	150
#	13587
#	34078
#	57196
#	77034
#	96929
#	112214
#	127047
#	143283
#	164107
#	189876
#	201846
#	225328
#	247359
#	267020
#
# Disc length: 3867 seconds
#
# Revision: 2
# Processed by: cddbd v1.5.2PL0 Copyright (c) Steve Scherf et al.
# Submitted via: CDex 1.51
#
DISCID=cd0f190f
DTITLE=VARIOS - ALL TIME GREATEST HITS GOES TO JAZZ
DYEAR=2009
DGENRE=Jazz
TTITLE0=LET THE GOOD TIMES ROLL 
TTITLE1=WHO´S CRYING NOW 
TTITLE2=JAMMING 
TTITLE3=PATA PATA 
TTITLE4=THAT GIRL 
TTITLE5=TEARS IN HEAVEN 
TTITLE6=WHAT A DIFFERENCE A DAY MADE 
TTITLE7=THE GREATEST LOVE OF ALL 
TTITLE8=IF ONLY FOR ONE NIGHT 
TTITLE9=SMOKE GETS IN YOUR EYES 
TTITLE10=ONE NOTE SAMBA 
TTITLE11=STREET LIFE 
TTITLE12=I CAN´T MAKE YOU LOVE ME 
TTITLE13=THE GIRL FROM IPANEMA 
TTITLE14=GRAZIN´ IN THE GRASS
EXTD=YEAR: 2009
EXTT0=
EXTT1=
EXTT2=
EXTT3=
EXTT4=
EXTT5=
EXTT6=
EXTT7=
EXTT8=
EXTT9=
EXTT10=
EXTT11=
EXTT12=
EXTT13=
EXTT14=
PLAYORDER=
